# File created by Blade
# Date/Time:  Wed Jan 21 15:23:43 2015
# Frame Rate: 120.000 fps
#------------------------------------------------------
:FULLY-SPECIFIED
:DEGREES
332
root 32.214156 28.426459 -19.821846 -167.856665 -2.916074 -168.606942
Spine -1.057357 0.655644 7.695373
Head -2.944258 -0.095856 2.353996
LeftShoulder -8.218196 -21.611590 -0.256209
LeftArm -26.019887 24.500254 -84.666556
LeftForeArm 26.454384 -0.000000 39.176404
LeftHand -5.060431 -0.000000 -5.537622
LeftHandThumb1 -26.253704 0.000000 33.147579
RightShoulder -5.870064 -12.084393 8.792641
RightArm 18.063486 -18.582141 58.444280
RightForeArm -35.357014 -0.000000 42.087592
RightHand 1.001651 -0.000000 8.208380
RightHandThumb1 -24.326973 -0.000000 -32.862282
LeftUpLeg -6.917151 32.600664 43.651939
LeftLeg -5.088650 -0.000000 0.000000
LeftFoot -9.448701 9.879738 -16.810901
LeftToeBase 40.774786 -0.000000 -0.000000
RightUpLeg -52.123530 -30.291605 21.741951
RightLeg 71.561393 -0.000000 -0.000000
RightFoot -53.773730 -23.027384 24.233383
RightToeBase 23.828749 -0.000000 -0.000000
333
root 32.275316 28.379212 -19.829178 -167.804186 -2.880820 -168.527188
Spine -0.989009 0.689953 7.833544
Head -3.033646 -0.008161 2.332187
LeftShoulder -8.223656 -21.609453 -0.254634
LeftArm -25.994566 24.447673 -84.654173
LeftForeArm 26.219395 -0.000000 39.192841
LeftHand -4.990368 -0.000000 -5.444332
LeftHandThumb1 -26.253704 0.000000 33.147579
RightShoulder -5.868366 -12.074180 8.777200
RightArm 18.069581 -18.572847 58.423726
RightForeArm -35.233466 -0.000000 42.282461
RightHand 0.952643 -0.000000 8.193791
RightHandThumb1 -24.326973 -0.000000 -32.862282
LeftUpLeg -6.904834 32.682495 43.873202
LeftLeg -5.047386 -0.000000 0.000000
LeftFoot -9.463131 9.867540 -16.838231
LeftToeBase 40.851551 -0.000000 -0.000000
RightUpLeg -52.262339 -30.119593 21.935574
RightLeg 71.802945 -0.000000 -0.000000
RightFoot -54.002890 -23.118305 24.312545
RightToeBase 23.844842 -0.000000 -0.000000
334
root 32.327890 28.332210 -19.832953 -167.693176 -2.811991 -168.541197
Spine -0.998071 0.708974 7.864808
Head -3.082152 0.017396 2.285612
LeftShoulder -8.252995 -21.601523 -0.244284
LeftArm -26.013938 24.484532 -84.637326
LeftForeArm 26.172626 -0.000000 39.262641
LeftHand -5.119757 -0.000000 -5.144436
LeftHandThumb1 -26.253704 0.000000 33.147579
RightShoulder -5.798116 -12.099446 8.741310
RightArm 18.048059 -18.550402 58.442844
RightForeArm -35.065669 -0.000000 42.478948
RightHand 0.740413 -0.000000 7.741133
RightHandThumb1 -24.326973 -0.000000 -32.862282
LeftUpLeg -6.931912 32.825927 43.946132
LeftLeg -5.018860 -0.000000 0.000000
LeftFoot -9.474405 9.858628 -16.829958
LeftToeBase 40.829379 -0.000000 -0.000000
RightUpLeg -52.484000 -29.897232 22.045653
RightLeg 72.084486 -0.000000 -0.000000
RightFoot -54.220450 -23.177033 24.419554
RightToeBase 23.473481 -0.000000 -0.000000
335
root 32.382772 28.286186 -19.834052 -167.603647 -2.728425 -168.522258
Spine -0.952445 0.787726 7.908518
Head -3.161792 0.084762 2.292871
LeftShoulder -8.248537 -21.551150 -0.199124
LeftArm -25.923467 24.472885 -84.621545
LeftForeArm 26.016580 0.000000 39.264264
LeftHand -4.995959 0.000000 -5.187646
LeftHandThumb1 -26.253704 0.000000 33.147579
RightShoulder -5.796005 -12.095701 8.722894
RightArm 18.075454 -18.564803 58.459519
RightForeArm -35.221177 -0.000000 42.662994
RightHand 0.831605 -0.000000 7.957719
RightHandThumb1 -24.326973 -0.000000 -32.862282
LeftUpLeg -6.913587 32.926699 44.086528
LeftLeg -4.994631 -0.000000 0.000000
LeftFoot -9.490348 9.869196 -16.867765
LeftToeBase 40.850047 -0.000000 -0.000000
RightUpLeg -52.660126 -29.637543 22.162991
RightLeg 72.334972 -0.000000 -0.000000
RightFoot -54.441554 -23.316848 24.535551
RightToeBase 23.736978 -0.000000 -0.000000
336
root 32.432831 28.240621 -19.839694 -167.531950 -2.649827 -168.537806
Spine -0.884331 0.818567 7.927754
Head -3.264258 0.129751 2.277015
LeftShoulder -8.249490 -21.642079 -0.174469
LeftArm -26.019040 24.436104 -84.648199
LeftForeArm 25.928115 -0.000000 39.318900
LeftHand -5.089304 -0.000000 -4.940383
LeftHandThumb1 -26.253704 0.000000 33.147579
RightShoulder -5.766604 -12.089025 8.687928
RightArm 18.080686 -18.560898 58.490314
RightForeArm -35.209179 -0.000000 42.886142
RightHand 0.789500 -0.000000 8.127069
RightHandThumb1 -24.326973 -0.000000 -32.862282
LeftUpLeg -6.855481 32.980030 44.198695
LeftLeg -5.012168 -0.000000 0.000000
LeftFoot -9.489814 9.895474 -16.914988
LeftToeBase 40.848247 -0.000000 -0.000000
RightUpLeg -52.829165 -29.438274 22.247636
RightLeg 72.605722 -0.000000 -0.000000
RightFoot -54.633721 -23.358255 24.614608
RightToeBase 23.329532 -0.000000 -0.000000
337
root 32.480137 28.195026 -19.842380 -167.441933 -2.585574 -168.564943
Spine -0.846073 0.858997 7.942768
Head -3.348777 0.189227 2.241826
LeftShoulder -8.201594 -21.640057 -0.163554
LeftArm -26.045099 24.409539 -84.627796
LeftForeArm 25.683302 -0.000000 39.396655
LeftHand -5.041386 -0.000000 -4.789637
LeftHandThumb1 -26.253704 0.000000 33.147579
RightShoulder -5.778311 -12.088140 8.664359
RightArm 18.092854 -18.540633 58.515051
RightForeArm -35.477870 0.000000 43.117904
RightHand 0.814815 -0.000000 8.179547
RightHandThumb1 -24.326973 -0.000000 -32.862282
LeftUpLeg -6.840745 33.040095 44.282575
LeftLeg -5.011304 -0.000000 0.000000
LeftFoot -9.502802 9.899684 -16.940158
LeftToeBase 40.846622 -0.000000 -0.000000
RightUpLeg -53.030934 -29.243038 22.328919
RightLeg 72.879588 -0.000000 -0.000000
RightFoot -54.836356 -23.417647 24.742104
RightToeBase 23.252023 -0.000000 -0.000000
338
root 32.526652 28.149364 -19.842857 -167.337213 -2.487555 -168.593116
Spine -0.807829 0.909441 7.938889
Head -3.445464 0.238062 2.240409
LeftShoulder -8.218037 -21.608939 -0.113554
LeftArm -25.996378 24.431667 -84.636768
LeftForeArm 25.653999 -0.000000 39.449879
LeftHand -5.210457 -0.000000 -4.990713
LeftHandThumb1 -26.253704 0.000000 33.147579
RightShoulder -5.744159 -12.057126 8.625746
RightArm 18.067437 -18.555917 58.567442
RightForeArm -35.548928 -0.000000 43.363973
RightHand 0.720961 -0.000000 8.096228
RightHandThumb1 -24.326973 -0.000000 -32.862282
LeftUpLeg -6.806683 33.113230 44.367460
LeftLeg -5.014871 -0.000000 0.000000
LeftFoot -9.532715 9.925652 -16.981696
LeftToeBase 40.889772 -0.000000 -0.000000
RightUpLeg -53.236591 -28.993474 22.395531
RightLeg 73.148008 -0.000000 -0.000000
RightFoot -55.013374 -23.533265 24.849910
RightToeBase 23.417990 -0.000000 -0.000000
